<svg xmlns="http://www.w3.org/2000/svg" width="95" height="29.166" viewBox="0 0 95 29.166">
  <g id="Group_7" data-name="Group 7" transform="translate(-984.3 -102.091)">
    <path id="Path_20" data-name="Path 20" d="M1075.581,102.091H984.3v29.166h95V102.091Zm0,25.447H988.019V105.81h87.562Z" transform="translate(0 0)" fill="#fff"/>
    <g id="Group_6" data-name="Group 6" transform="translate(993.298 111.408)">
      <path id="Path_21" data-name="Path 21" d="M1003.851,121.738a7.005,7.005,0,0,1-4.722,1.831c-3.383,0-5.152-2.338-5.152-5.66,0-3.4,1.861-5.8,5.428-5.8a4.254,4.254,0,0,1,4.537,4.49H1000.7c-.077-1.014-.477-1.553-1.43-1.553-1.077,0-1.8.738-1.8,2.845,0,1.876.815,2.66,2.076,2.66a5.133,5.133,0,0,0,2.938-1.076Z" transform="translate(-993.977 -112.111)" fill="#fff"/>
      <path id="Path_22" data-name="Path 22" d="M1006.9,112.326h3.338V123.4H1006.9Z" transform="translate(-994.884 -112.126)" fill="#fff"/>
      <path id="Path_23" data-name="Path 23" d="M1015.667,115.233h-3.075v-2.907h9.473v2.907h-3.075V123.4h-3.323Z" transform="translate(-995.284 -112.126)" fill="#fff"/>
      <path id="Path_24" data-name="Path 24" d="M1027.527,119.538l-3.783-7.213h3.629l1.862,4.23,1.846-4.23h3.722l-3.953,7.182V123.4h-3.322Z" transform="translate(-996.067 -112.126)" fill="#fff"/>
      <path id="Path_25" data-name="Path 25" d="M1046.854,112.326v8.228h4.383V123.4h-7.72V112.326Z" transform="translate(-997.455 -112.126)" fill="#fff"/>
      <path id="Path_26" data-name="Path 26" d="M1061.222,112.326l3.769,11.073h-3.661l-.538-1.738h-3.168l-.554,1.738h-3.476l3.829-11.073Zm-1.014,6.951-.939-3.706-1.061,3.706Z" transform="translate(-998.162 -112.126)" fill="#fff"/>
      <path id="Path_27" data-name="Path 27" d="M1067.691,112.326h4.876c2.245,0,4.045.845,4.045,2.907a2.256,2.256,0,0,1-1.815,2.368v.031a2.523,2.523,0,0,1,2.215,2.568c0,2.523-1.876,3.2-4.63,3.2h-4.691Zm3.337,2.552v1.677h1.215c.63,0,1.154-.2,1.154-.877,0-.6-.416-.8-1.107-.8Zm0,3.983v1.969h1.462a1,1,0,0,0,1.122-1.015c0-.616-.477-.954-1.169-.954Z" transform="translate(-999.151 -112.126)" fill="#fff"/>
    </g>
  </g>
</svg>
