<svg id="Group_123" data-name="Group 123" xmlns="http://www.w3.org/2000/svg" width="202.672" height="78.193" viewBox="0 0 202.672 78.193">
  <g id="Group_130" data-name="Group 130" transform="translate(105.431 38.042)">
    <path id="Path_173" data-name="Path 173" d="M310.542,305.641l-.687-8.154-2.467,8.154h-3.422l-2.578-8.132-.666,8.132h-4.533l1.512-16h5.11l2.844,10.154h.11l2.822-10.154h5.022l1.377,16Z" transform="translate(-296.189 -288.755)" fill="#fff"/>
    <path id="Path_174" data-name="Path 174" d="M337.209,306.761a10.624,10.624,0,0,1-5.132,1.266c-3.912,0-6.134-2.333-6.134-6.043,0-3.822,2.4-6.288,6.244-6.288,3.578,0,5.666,1.8,5.666,5.489a10.416,10.416,0,0,1-.111,1.71h-6.91a1.822,1.822,0,0,0,2.066,1.823,12.268,12.268,0,0,0,3.467-.711Zm-3.732-6.221c-.023-1.045-.334-1.778-1.245-1.778-1.021,0-1.4.934-1.4,1.778Z" transform="translate(-306.61 -290.875)" fill="#fff"/>
    <path id="Path_175" data-name="Path 175" d="M353.967,304.286a4.192,4.192,0,0,1-3.487,1.622c-3.134,0-4.778-2.177-4.778-6.132,0-4.311,2.511-6.2,5.178-6.2a4.385,4.385,0,0,1,2.8,1.022v-4.954H358.3v16h-4.022Zm-.288-6.488a2.066,2.066,0,0,0-1.511-.622c-1.044,0-1.577.844-1.577,2.555,0,1.556.378,2.644,1.577,2.644a2.079,2.079,0,0,0,1.511-.577Z" transform="translate(-313.53 -288.755)" fill="#fff"/>
    <path id="Path_176" data-name="Path 176" d="M370.159,288.276c1.444,0,2.511.711,2.511,2.11,0,1.378-1.045,2.067-2.511,2.067-1.4,0-2.511-.645-2.511-2.067C367.648,288.987,368.737,288.276,370.159,288.276Zm2.31,16.886h-4.62v-11.8h4.62Z" transform="translate(-321.216 -288.276)" fill="#fff"/>
    <path id="Path_177" data-name="Path 177" d="M388.328,307.761H384.6l-.4-1.244a4.239,4.239,0,0,1-3.4,1.511c-2.222,0-3.777-1.066-3.777-3.488,0-2.244,1.711-3.578,5.288-3.578a12.474,12.474,0,0,1,1.4.067V300.3c0-.911-.556-1.266-1.467-1.266a10.349,10.349,0,0,0-3.8.755l-.888-2.866a13.2,13.2,0,0,1,5.155-1.222c3.733,0,5.621,1.355,5.621,4.644Zm-4.621-4.532a2.811,2.811,0,0,0-.867-.112c-.867,0-1.489.267-1.489,1.067,0,.711.423,1,1.089,1a1.2,1.2,0,0,0,1.266-1.066Z" transform="translate(-324.498 -290.875)" fill="#fff"/>
    <path id="Path_178" data-name="Path 178" d="M397.184,305.641v-16h4.622v16Z" transform="translate(-331.561 -288.755)" fill="#fff"/>
    <path id="Path_179" data-name="Path 179" d="M417.6,307.761h-3.732l-.4-1.244a4.241,4.241,0,0,1-3.4,1.511c-2.222,0-3.776-1.066-3.776-3.488,0-2.244,1.711-3.578,5.288-3.578a12.493,12.493,0,0,1,1.4.067V300.3c0-.911-.556-1.266-1.467-1.266a10.349,10.349,0,0,0-3.8.755l-.888-2.866a13.2,13.2,0,0,1,5.155-1.222c3.732,0,5.62,1.355,5.62,4.644Zm-4.62-4.532a2.815,2.815,0,0,0-.867-.112c-.867,0-1.489.267-1.489,1.067,0,.711.422,1,1.089,1a1.2,1.2,0,0,0,1.266-1.066Z" transform="translate(-334.752 -290.875)" fill="#fff"/>
    <path id="Path_180" data-name="Path 180" d="M426.457,305.641v-16h4.62v5.066a4.442,4.442,0,0,1,3.11-1.134c2.467,0,4.866,1.667,4.866,6.044,0,4.066-1.6,6.287-5.4,6.287a4.113,4.113,0,0,1-3.222-1.511l-.421,1.244Zm4.62-3.821a2.2,2.2,0,0,0,1.511.6c1,0,1.6-.778,1.6-2.6,0-1.866-.444-2.689-1.489-2.689a2.4,2.4,0,0,0-1.622.667Z" transform="translate(-341.813 -288.755)" fill="#fff"/>
  </g>
  <g id="Group_131" data-name="Group 131" transform="translate(107.039 62.212)">
    <path id="Path_181" data-name="Path 181" d="M298.664,325.474h.743v7.161h3.624l4.387-7.161h.851l-4.562,7.423,5.5,8.3h-.852l-5.3-7.9h-3.646v7.9h-.743Z" transform="translate(-298.664 -325.474)" fill="#fff"/>
    <path id="Path_182" data-name="Path 182" d="M325.3,343.37h-.655V340.6c-.875,2.073-2.205,3.034-4.061,3.034a3.034,3.034,0,0,1-3.318-3.21c0-1.418.807-3.449,5.37-3.449a15.094,15.094,0,0,1,1.986.131V335.6c0-2.161-1.134-3.275-3.144-3.275a4.166,4.166,0,0,0-3.209,1.55l-.415-.459a4.735,4.735,0,0,1,3.624-1.724c2.183,0,3.821,1.113,3.821,3.777Zm-.678-5.676a13.608,13.608,0,0,0-1.921-.131c-3.514,0-4.715,1.157-4.715,2.991a2.465,2.465,0,0,0,2.728,2.489c2.27,0,3.908-2.576,3.908-4.585Z" transform="translate(-305.178 -327.651)" fill="#fff"/>
    <path id="Path_183" data-name="Path 183" d="M334.659,331.139v9.279c0,.917.458,1.157.982,1.157a3.583,3.583,0,0,0,1.353-.283l.175.546a4.077,4.077,0,0,1-1.682.371,1.36,1.36,0,0,1-1.506-1.55v-9.518h-1.353V330.7l1.353-.175.175-2.9h.5v2.9h1.855v.611Z" transform="translate(-310.56 -326.227)" fill="#fff"/>
    <path id="Path_184" data-name="Path 184" d="M346.569,331.69c3.013,0,4.891,2.27,4.891,6,0,3.624-1.878,5.938-4.891,5.938-3.079,0-4.8-2.315-4.8-5.938S343.556,331.69,346.569,331.69Zm0,11.308c2.315,0,4.17-1.724,4.17-5.3,0-3.646-1.855-5.371-4.17-5.371s-4.082,1.791-4.082,5.371S344.256,343,346.569,343Z" transform="translate(-313.76 -327.651)" fill="#fff"/>
    <path id="Path_185" data-name="Path 185" d="M372.661,332.093l-2.73,11.418h-.719l-3.45-10.283-3.318,10.283h-.721l-2.707-11.418h.7l2.424,10.414,3.274-10.261h.721l3.406,10.261,2.422-10.414Z" transform="translate(-319.801 -327.792)" fill="#fff"/>
    <path id="Path_186" data-name="Path 186" d="M383.879,326.146a.633.633,0,0,1,0,1.266.633.633,0,1,1,0-1.266Zm.328,15.283h-.678V330.01h.678Z" transform="translate(-328.279 -325.709)" fill="#fff"/>
    <path id="Path_187" data-name="Path 187" d="M397.829,342.082a5.323,5.323,0,0,1-3.951,1.55c-3.057,0-4.848-2.511-4.848-6.069,0-3.93,2.206-5.873,4.825-5.873a3.841,3.841,0,0,1,4.061,3.821h-.655a3.279,3.279,0,0,0-3.428-3.188c-2.532,0-4.082,2.1-4.082,5.24,0,2.795,1.4,5.436,4.148,5.436a4.9,4.9,0,0,0,3.559-1.4Z" transform="translate(-330.314 -327.651)" fill="#fff"/>
    <path id="Path_188" data-name="Path 188" d="M414.663,342.06a5.227,5.227,0,0,1-3.909,1.572c-2.947,0-4.934-1.79-4.934-5.938,0-3.624,1.9-6,4.869-6,2.75,0,4.126,1.834,4.126,5.7v.35h-8.274c0,3.209,1.332,5.261,4.236,5.261a4.626,4.626,0,0,0,3.471-1.4Zm-.569-4.955c0-2.751-.852-4.782-3.405-4.782-3.363,0-4.127,3.384-4.127,4.782Z" transform="translate(-336.194 -327.651)" fill="#fff"/>
  </g>
  <path id="Path_189" data-name="Path 189" d="M210.53,270.913v-40.36l0-.005H196.786v0L179.1,261.023v-30.47h0l0-.006h-3.345l-10.4-.018v.023L147.67,261.029v-31.3l-13.741,13.743V284.7H147.67l17.691-30.476V284.7h0v.02H179.1V284.7l17.685-30.468v16.683l13.746,13.744h12.331V270.913Z" transform="translate(-133.929 -229.729)" fill="#fff"/>
</svg>
