<svg xmlns="http://www.w3.org/2000/svg" width="149.855" height="89.121" viewBox="0 0 149.855 89.121">
  <g id="Group_6" data-name="Group 6" transform="translate(-327.956 -76.024)">
    <g id="Group_4" data-name="Group 4" transform="translate(327.956 76.024)">
      <path id="Path_6" data-name="Path 6" d="M447.959,164.523l-17.371-17.432h-19.14l-10.113,17.487v.038H395.3v3.632h85.261V147.091H466.253v17.432Z" transform="translate(-334.328 -82.749)" fill="none"/>
      <path id="Path_7" data-name="Path 7" d="M429.473,116.305l-14.025,24.251h14.025Z" transform="translate(-336.234 -79.836)" fill="none"/>
      <path id="Path_8" data-name="Path 8" d="M385.306,136.745H407.17l14.025-24.251v24.251h20.387v-59.5l.005-.009H421.195v.005l-26.232,45.367V77.248l0-.009H390l-15.424-.024v.033L348.338,122.62v-46.6L327.956,96.483v61.377h20.382L374.58,112.49v45.4h10.727V136.745Z" transform="translate(-327.956 -76.024)" fill="#fff"/>
      <path id="Path_9" data-name="Path 9" d="M429.255,143.681v-.59H415.23l-2.094,3.622h19.14Z" transform="translate(-336.015 -82.37)" fill="#fff"/>
      <path id="Path_10" data-name="Path 10" d="M480.183,143.091H447.575v.59h18.3v3.032h14.308V167.87H394.922v-3.632H391.3v7.253h92.5v-28.4Z" transform="translate(-333.949 -82.37)" fill="#fff"/>
      <path id="Path_11" data-name="Path 11" d="M430.939,143.681l3.021,3.032h35.665v-3.032h-18.3v-.59H430.939Z" transform="translate(-337.7 -82.37)" fill="#fff"/>
      <path id="Path_12" data-name="Path 12" d="M394.922,146.713H411.07l2.094-3.622H391.3v21.147h3.622Z" transform="translate(-333.949 -82.37)" fill="#fff"/>
    </g>
    <g id="Group_5" data-name="Group 5" transform="translate(394.068 145.817)">
      <path id="Path_13" data-name="Path 13" d="M410.591,162.485a6.821,6.821,0,0,1-4.6,1.783c-3.295,0-5.017-2.277-5.017-5.511,0-3.31,1.812-5.646,5.286-5.646a4.142,4.142,0,0,1,4.418,4.372h-3.16c-.075-.988-.464-1.512-1.392-1.512-1.048,0-1.753.719-1.753,2.77,0,1.827.794,2.59,2.022,2.59a5,5,0,0,0,2.861-1.048Z" transform="translate(-400.977 -153.111)" fill="#fff"/>
      <path id="Path_14" data-name="Path 14" d="M413.9,153.326h3.25v10.782H413.9Z" transform="translate(-402.2 -153.131)" fill="#fff"/>
      <path id="Path_15" data-name="Path 15" d="M422.586,156.156h-2.994v-2.83h9.224v2.83h-2.994v7.952h-3.236Z" transform="translate(-402.738 -153.131)" fill="#fff"/>
      <path id="Path_16" data-name="Path 16" d="M434.428,160.349l-3.684-7.023h3.534l1.813,4.119,1.8-4.119h3.624l-3.849,6.993v3.789h-3.235Z" transform="translate(-403.794 -153.131)" fill="#fff"/>
      <path id="Path_17" data-name="Path 17" d="M453.766,153.326v8.012h4.268v2.77h-7.517V153.326Z" transform="translate(-405.664 -153.131)" fill="#fff"/>
      <path id="Path_18" data-name="Path 18" d="M468.022,153.326l3.67,10.782h-3.564l-.524-1.692h-3.085l-.54,1.692h-3.384l3.728-10.782Zm-.988,6.769-.914-3.609-1.033,3.609Z" transform="translate(-406.618 -153.131)" fill="#fff"/>
      <path id="Path_19" data-name="Path 19" d="M474.691,153.326h4.748c2.187,0,3.938.823,3.938,2.83a2.2,2.2,0,0,1-1.767,2.306v.03a2.457,2.457,0,0,1,2.157,2.5c0,2.456-1.827,3.115-4.508,3.115h-4.568Zm3.249,2.485v1.633h1.183c.614,0,1.124-.2,1.124-.854,0-.584-.4-.78-1.078-.78Zm0,3.879v1.918h1.423a.975.975,0,0,0,1.093-.989c0-.6-.464-.929-1.138-.929Z" transform="translate(-407.952 -153.131)" fill="#fff"/>
    </g>
  </g>
</svg>
